<?xml version="1.0" encoding="UTF-8" standalone="no"?>
<!-- Created with Inkscape (http://www.inkscape.org/) -->

<svg
   width="210mm"
   height="297mm"
   viewBox="0 0 210 297"
   version="1.1"
   id="svg5"
   sodipodi:docname="icon.svg"
   xml:space="preserve"
   inkscape:version="1.2.1 (9c6d41e410, 2022-07-14)"
   inkscape:export-filename="icon16x16.png"
   inkscape:export-xdpi="2.0153747"
   inkscape:export-ydpi="2.0153747"
   xmlns:inkscape="http://www.inkscape.org/namespaces/inkscape"
   xmlns:sodipodi="http://sodipodi.sourceforge.net/DTD/sodipodi-0.dtd"
   xmlns="http://www.w3.org/2000/svg"
   xmlns:svg="http://www.w3.org/2000/svg"><sodipodi:namedview
     id="namedview7"
     pagecolor="#505050"
     bordercolor="#eeeeee"
     borderopacity="1"
     inkscape:showpageshadow="0"
     inkscape:pageopacity="0"
     inkscape:pagecheckerboard="0"
     inkscape:deskcolor="#505050"
     inkscape:document-units="mm"
     showgrid="false"
     inkscape:zoom="0.81738281"
     inkscape:cx="177.39546"
     inkscape:cy="534.63321"
     inkscape:window-width="1920"
     inkscape:window-height="1017"
     inkscape:window-x="1672"
     inkscape:window-y="-8"
     inkscape:window-maximized="1"
     inkscape:current-layer="layer1" /><defs
     id="defs2"><rect
       x="83.192354"
       y="292.39665"
       width="636.17682"
       height="581.12306"
       id="rect802" /></defs><g
     inkscape:label="Icon"
     inkscape:groupmode="layer"
     id="layer1"><rect
       style="fill:#bfbfbf;stroke-width:0.264583"
       id="rect233"
       width="201.64986"
       height="201.64984"
       x="4.3488617"
       y="42.344185"
       rx="12.7"
       ry="12.7"
       inkscape:label="Background" /><g
       fill="#008373"
       transform="matrix(0.26458333,0,0,0.26458333,100.12982,-157.34769)"
       id="g1612"
       inkscape:label="Bing Logo"><path
         d="m -311.5,796.169 80.6273,28.364 v 283.808 l 113.567,-65.5599 -55.6796,-26.1246 -35.1274,-87.4307 178.939,62.8645 v 91.3952 l -201.654,116.31 -80.6733,-44.875 z"
         id="path1600"
         inkscape:label="Cyan" /></g><g
       style="fill:#a1a1a1"
       id="g1773"
       transform="matrix(0.63271877,0,0,0.63271877,106.88675,144.6267)"
       inkscape:label="Google Logo"><path
         d="M 141.14,73.64 A 85.79,85.79 0 0 0 139.9,59 H 72 v 27.73 h 38.89 a 33.33,33.33 0 0 1 -14.38,21.88 v 18 h 23.21 c 13.59,-12.53 21.42,-31.06 21.42,-52.97 z"
         fill="#4285f4"
         id="path1752"
         inkscape:label="Blue" /><path
         d="m 72,144 c 19.43,0 35.79,-6.38 47.72,-17.38 l -23.21,-18 C 90.05,113 81.73,115.5 72,115.5 53.22,115.5 37.28,102.84 31.58,85.78 H 7.67 v 18.55 A 72,72 0 0 0 72,144 Z"
         fill="#34a853"
         id="path1754"
         inkscape:label="Green" /><path
         d="m 31.58,85.78 a 43.14,43.14 0 0 1 0,-27.56 V 39.67 H 7.67 a 72,72 0 0 0 0,64.66 z"
         fill="#fbbc04"
         id="path1756"
         inkscape:label="Yellow" /><path
         d="m 72,28.5 a 39.09,39.09 0 0 1 27.62,10.8 v 0 L 120.17,18.75 A 69.18,69.18 0 0 0 72,0 72,72 0 0 0 7.67,39.67 L 31.58,58.22 C 37.28,41.16 53.22,28.5 72,28.5 Z"
         fill="#ea4335"
         id="path1758"
         inkscape:label="Red" /></g><rect
       style="fill:#404040;stroke-width:0.285678"
       id="rect1827"
       width="21.040222"
       height="220.76048"
       x="164.46436"
       y="-79.365997"
       rx="12.7"
       ry="14.805812"
       transform="rotate(45)"
       inkscape:label="Seperator" /></g></svg>
